<svg width="150" height="39" viewBox="0 0 150 39" fill="none" xmlns="http://www.w3.org/2000/svg">
<path d="M54.7911 30.24C52.9511 30.24 51.3311 29.88 49.9311 29.16C48.5511 28.44 47.4811 27.46 46.7211 26.22C45.9611 24.96 45.5811 23.53 45.5811 21.93C45.5811 20.31 45.9511 18.88 46.6911 17.64C47.4511 16.38 48.4811 15.4 49.7811 14.7C51.0811 13.98 52.5511 13.62 54.1911 13.62C55.7711 13.62 57.1911 13.96 58.4511 14.64C59.7311 15.3 60.7411 16.26 61.4811 17.52C62.2211 18.76 62.5911 20.25 62.5911 21.99C62.5911 22.17 62.5811 22.38 62.5611 22.62C62.5411 22.84 62.5211 23.05 62.5011 23.25H49.3911V20.52H60.0411L58.2411 21.33C58.2411 20.49 58.0711 19.76 57.7311 19.14C57.3911 18.52 56.9211 18.04 56.3211 17.7C55.7211 17.34 55.0211 17.16 54.2211 17.16C53.4211 17.16 52.7111 17.34 52.0911 17.7C51.4911 18.04 51.0211 18.53 50.6811 19.17C50.3411 19.79 50.1711 20.53 50.1711 21.39V22.11C50.1711 22.99 50.3611 23.77 50.7411 24.45C51.1411 25.11 51.6911 25.62 52.3911 25.98C53.1111 26.32 53.9511 26.49 54.9111 26.49C55.7711 26.49 56.5211 26.36 57.1611 26.1C57.8211 25.84 58.4211 25.45 58.9611 24.93L61.4511 27.63C60.7111 28.47 59.7811 29.12 58.6611 29.58C57.5411 30.02 56.2511 30.24 54.7911 30.24ZM69.7939 30L63.0139 13.86H67.8439L73.4839 27.75H71.0839L76.9339 13.86H81.4339L74.6239 30H69.7939ZM92.7163 30V26.85L92.4163 26.16V20.52C92.4163 19.52 92.1063 18.74 91.4863 18.18C90.8863 17.62 89.9563 17.34 88.6963 17.34C87.8363 17.34 86.9863 17.48 86.1463 17.76C85.3263 18.02 84.6263 18.38 84.0463 18.84L82.3663 15.57C83.2463 14.95 84.3063 14.47 85.5463 14.13C86.7863 13.79 88.0463 13.62 89.3263 13.62C91.7863 13.62 93.6963 14.2 95.0563 15.36C96.4163 16.52 97.0963 18.33 97.0963 20.79V30H92.7163ZM87.7963 30.24C86.5363 30.24 85.4563 30.03 84.5563 29.61C83.6563 29.17 82.9663 28.58 82.4863 27.84C82.0063 27.1 81.7663 26.27 81.7663 25.35C81.7663 24.39 81.9963 23.55 82.4563 22.83C82.9363 22.11 83.6863 21.55 84.7063 21.15C85.7263 20.73 87.0563 20.52 88.6963 20.52H92.9863V23.25H89.2063C88.1063 23.25 87.3463 23.43 86.9263 23.79C86.5263 24.15 86.3263 24.6 86.3263 25.14C86.3263 25.74 86.5563 26.22 87.0163 26.58C87.4963 26.92 88.1463 27.09 88.9663 27.09C89.7463 27.09 90.4463 26.91 91.0663 26.55C91.6863 26.17 92.1363 25.62 92.4163 24.9L93.1363 27.06C92.7963 28.1 92.1763 28.89 91.2763 29.43C90.3763 29.97 89.2163 30.24 87.7963 30.24ZM111.142 13.62C112.422 13.62 113.562 13.88 114.562 14.4C115.582 14.9 116.382 15.68 116.962 16.74C117.542 17.78 117.832 19.12 117.832 20.76V30H113.152V21.48C113.152 20.18 112.862 19.22 112.282 18.6C111.722 17.98 110.922 17.67 109.882 17.67C109.142 17.67 108.472 17.83 107.872 18.15C107.292 18.45 106.832 18.92 106.492 19.56C106.172 20.2 106.012 21.02 106.012 22.02V30H101.332V13.86H105.802V18.33L104.962 16.98C105.542 15.9 106.372 15.07 107.452 14.49C108.532 13.91 109.762 13.62 111.142 13.62ZM142.744 13.62C144.024 13.62 145.154 13.88 146.134 14.4C147.134 14.9 147.914 15.68 148.474 16.74C149.054 17.78 149.344 19.12 149.344 20.76V30H144.664V21.48C144.664 20.18 144.394 19.22 143.854 18.6C143.314 17.98 142.554 17.67 141.574 17.67C140.894 17.67 140.284 17.83 139.744 18.15C139.204 18.45 138.784 18.91 138.484 19.53C138.184 20.15 138.034 20.94 138.034 21.9V30H133.354V21.48C133.354 20.18 133.084 19.22 132.544 18.6C132.024 17.98 131.274 17.67 130.294 17.67C129.614 17.67 129.004 17.83 128.464 18.15C127.924 18.45 127.504 18.91 127.204 19.53C126.904 20.15 126.754 20.94 126.754 21.9V30H122.074V13.86H126.544V18.27L125.704 16.98C126.264 15.88 127.054 15.05 128.074 14.49C129.114 13.91 130.294 13.62 131.614 13.62C133.094 13.62 134.384 14 135.484 14.76C136.604 15.5 137.344 16.64 137.704 18.18L136.054 17.73C136.594 16.47 137.454 15.47 138.634 14.73C139.834 13.99 141.204 13.62 142.744 13.62Z" fill="#954032"/>
<circle cx="19.5" cy="19.5" r="18.9" stroke="#954032" stroke-width="1.2"/>
<line x1="9.57574" y1="19.5757" x2="19.5757" y2="9.57574" stroke="#954032" stroke-width="1.2"/>
<line x1="19.5757" y1="30.5757" x2="29.5757" y2="20.5757" stroke="#954032" stroke-width="1.2"/>
<line x1="9.57574" y1="24.5757" x2="24.5757" y2="9.57574" stroke="#954032" stroke-width="1.2"/>
<line x1="14.5757" y1="30.5757" x2="29.5757" y2="15.5757" stroke="#954032" stroke-width="1.2"/>
<line x1="9.57574" y1="29.5757" x2="29.5757" y2="9.57574" stroke="#954032" stroke-width="1.2"/>
</svg>
